<svg xmlns="http://www.w3.org/2000/svg" viewBox="0 0 32 32">
  <defs>
    <linearGradient id="bg" x1="0%" y1="0%" x2="100%" y2="100%">
      <stop offset="0%" stop-color="#D4A843"/>
      <stop offset="100%" stop-color="#B8922E"/>
    </linearGradient>
  </defs>
  <rect width="32" height="32" rx="8" fill="url(#bg)"/>
  <path d="M16 5C11.6 5 8 8.1 8 12c0 2.4 1.5 4.5 3.7 5.8L10 25.5c-.1.4.1.8.4 1 .2.1.4.2.6.2.2 0 .3 0 .5-.1L16 24l4.5 2.6c.4.2.8.2 1.1 0 .3-.2.5-.6.4-1l-1.7-7.7C22.5 16.5 24 14.4 24 12c0-3.9-3.6-7-8-7zm0 2c3.3 0 6 2.2 6 5 0 2.1-1.5 3.9-3.7 4.7-.3.1-.5.4-.4.7l1.4 6.3L16 23l-3.3 1.7 1.4-6.3c.1-.3-.1-.6-.4-.7C11.5 16.9 10 15.1 10 13c0-2.8 2.7-5 6-5z" fill="#0B1120" fill-opacity="0.85"/>
</svg>
